<mxfile host="app.diagrams.net" agent="Mozilla/5.0 (Windows NT 10.0; Win64; x64) AppleWebKit/537.36 (KHTML, like Gecko) Chrome/136.0.0.0 Safari/537.36" version="27.0.6">
  <diagram name="Page-1" id="vn8hduGviVdRCSNvX0Pa">
    <mxGraphModel dx="5274" dy="1566" grid="1" gridSize="10" guides="1" tooltips="1" connect="1" arrows="1" fold="1" page="1" pageScale="1" pageWidth="827" pageHeight="1169" math="0" shadow="0">
      <root>
        <mxCell id="0" />
        <mxCell id="1" parent="0" />
        <mxCell id="2CR2mdME2oEIotMh_P0F-4" value="What type of engineering software should i use for my construction project ?" style="rounded=1;whiteSpace=wrap;html=1;" parent="1" vertex="1">
          <mxGeometry x="-372.5" y="20" width="260" height="60" as="geometry" />
        </mxCell>
        <mxCell id="2CR2mdME2oEIotMh_P0F-9" value="Design&amp;nbsp;&lt;div&gt;phase&lt;/div&gt;" style="rhombus;whiteSpace=wrap;html=1;" parent="1" vertex="1">
          <mxGeometry x="-607.5" y="210" width="80" height="80" as="geometry" />
        </mxCell>
        <mxCell id="2CR2mdME2oEIotMh_P0F-10" value="Under construction" style="rhombus;whiteSpace=wrap;html=1;" parent="1" vertex="1">
          <mxGeometry x="-292.5" y="210" width="100" height="80" as="geometry" />
        </mxCell>
        <mxCell id="2CR2mdME2oEIotMh_P0F-11" value="Renovation" style="rhombus;whiteSpace=wrap;html=1;" parent="1" vertex="1">
          <mxGeometry x="-7.5" y="180" width="80" height="80" as="geometry" />
        </mxCell>
        <mxCell id="2CR2mdME2oEIotMh_P0F-7" value="&lt;span style=&quot;color: rgb(0, 0, 0); font-family: Helvetica; font-size: 12px; font-style: normal; font-variant-ligatures: normal; font-variant-caps: normal; font-weight: 400; letter-spacing: normal; orphans: 2; text-align: center; text-indent: 0px; text-transform: none; widows: 2; word-spacing: 0px; -webkit-text-stroke-width: 0px; white-space: normal; background-color: rgb(236, 236, 236); text-decoration-thickness: initial; text-decoration-style: initial; text-decoration-color: initial; display: inline !important; float: none;&quot;&gt;what step is the project at ?&lt;/span&gt;" style="text;whiteSpace=wrap;html=1;" parent="1" vertex="1">
          <mxGeometry x="-317.5" y="110" width="180" height="40" as="geometry" />
        </mxCell>
        <mxCell id="2CR2mdME2oEIotMh_P0F-18" value="Is the project scope defined ?" style="text;html=1;align=center;verticalAlign=middle;whiteSpace=wrap;rounded=0;" parent="1" vertex="1">
          <mxGeometry x="-652.5" y="320" width="170" height="30" as="geometry" />
        </mxCell>
        <mxCell id="2CR2mdME2oEIotMh_P0F-19" value="is the structure built ?" style="text;html=1;align=center;verticalAlign=middle;whiteSpace=wrap;rounded=0;" parent="1" vertex="1">
          <mxGeometry x="-327.5" y="310" width="170" height="30" as="geometry" />
        </mxCell>
        <mxCell id="2CR2mdME2oEIotMh_P0F-21" value="Is it structural or architectural work ?" style="text;html=1;align=center;verticalAlign=middle;whiteSpace=wrap;rounded=0;" parent="1" vertex="1">
          <mxGeometry x="-507.5" y="670" width="170" height="30" as="geometry" />
        </mxCell>
        <mxCell id="2CR2mdME2oEIotMh_P0F-22" value="YES" style="rhombus;whiteSpace=wrap;html=1;" parent="1" vertex="1">
          <mxGeometry x="-537.5" y="400" width="70" height="40" as="geometry" />
        </mxCell>
        <mxCell id="2CR2mdME2oEIotMh_P0F-23" value="NO" style="rhombus;whiteSpace=wrap;html=1;" parent="1" vertex="1">
          <mxGeometry x="-667.5" y="400" width="70" height="40" as="geometry" />
        </mxCell>
        <mxCell id="2CR2mdME2oEIotMh_P0F-26" value="Go meet the project manager" style="ellipse;whiteSpace=wrap;html=1;" parent="1" vertex="1">
          <mxGeometry x="-877.5" y="385" width="120" height="70" as="geometry" />
        </mxCell>
        <mxCell id="2CR2mdME2oEIotMh_P0F-27" value="Structural" style="rhombus;whiteSpace=wrap;html=1;" parent="1" vertex="1">
          <mxGeometry x="-587.5" y="744.5" width="100" height="45" as="geometry" />
        </mxCell>
        <mxCell id="2CR2mdME2oEIotMh_P0F-28" value="Architectural" style="rhombus;whiteSpace=wrap;html=1;" parent="1" vertex="1">
          <mxGeometry x="-367.5" y="745" width="100" height="45" as="geometry" />
        </mxCell>
        <mxCell id="2CR2mdME2oEIotMh_P0F-29" value="is the building height is higher than 30 m ?" style="text;html=1;align=center;verticalAlign=middle;whiteSpace=wrap;rounded=0;" parent="1" vertex="1">
          <mxGeometry x="-637.5" y="813" width="170" height="30" as="geometry" />
        </mxCell>
        <mxCell id="2CR2mdME2oEIotMh_P0F-31" value="does the building must be built against natural disasters ?" style="text;html=1;align=center;verticalAlign=middle;whiteSpace=wrap;rounded=0;" parent="1" vertex="1">
          <mxGeometry x="-757.5" y="940" width="170" height="30" as="geometry" />
        </mxCell>
        <mxCell id="IJdTJug23O88KiCJzdD0-66" style="edgeStyle=orthogonalEdgeStyle;rounded=0;orthogonalLoop=1;jettySize=auto;html=1;" parent="1" source="2CR2mdME2oEIotMh_P0F-32" target="2CR2mdME2oEIotMh_P0F-36" edge="1">
          <mxGeometry relative="1" as="geometry" />
        </mxCell>
        <mxCell id="2CR2mdME2oEIotMh_P0F-32" value="YES" style="rhombus;whiteSpace=wrap;html=1;" parent="1" vertex="1">
          <mxGeometry x="-527.5" y="870" width="70" height="40" as="geometry" />
        </mxCell>
        <mxCell id="2CR2mdME2oEIotMh_P0F-33" value="NO" style="rhombus;whiteSpace=wrap;html=1;" parent="1" vertex="1">
          <mxGeometry x="-707.5" y="870" width="70" height="40" as="geometry" />
        </mxCell>
        <mxCell id="2CR2mdME2oEIotMh_P0F-34" value="YES" style="rhombus;whiteSpace=wrap;html=1;" parent="1" vertex="1">
          <mxGeometry x="-627.5" y="990" width="70" height="40" as="geometry" />
        </mxCell>
        <mxCell id="2CR2mdME2oEIotMh_P0F-35" value="NO" style="rhombus;whiteSpace=wrap;html=1;" parent="1" vertex="1">
          <mxGeometry x="-757.5" y="990" width="70" height="40" as="geometry" />
        </mxCell>
        <mxCell id="2CR2mdME2oEIotMh_P0F-36" value="&lt;div&gt;&lt;br&gt;&lt;/div&gt;&lt;div&gt;&lt;br&gt;&lt;/div&gt;Navisworks" style="ellipse;whiteSpace=wrap;html=1;" parent="1" vertex="1">
          <mxGeometry x="-302.5" y="1060" width="120" height="80" as="geometry" />
        </mxCell>
        <mxCell id="2CR2mdME2oEIotMh_P0F-37" value="&lt;div&gt;&lt;br&gt;&lt;/div&gt;&lt;div&gt;&lt;br&gt;&lt;/div&gt;&lt;div&gt;&lt;br&gt;&lt;/div&gt;STAAD Pro." style="ellipse;whiteSpace=wrap;html=1;" parent="1" vertex="1">
          <mxGeometry x="-782.5" y="1050" width="120" height="80" as="geometry" />
        </mxCell>
        <mxCell id="IJdTJug23O88KiCJzdD0-1" value="Is it for facade renovation?" style="text;whiteSpace=wrap;html=1;" parent="1" vertex="1">
          <mxGeometry x="-37.5" y="310" width="160" height="30" as="geometry" />
        </mxCell>
        <mxCell id="IJdTJug23O88KiCJzdD0-2" value="YES" style="rhombus;whiteSpace=wrap;html=1;" parent="1" vertex="1">
          <mxGeometry x="-362.5" y="390" width="70" height="40" as="geometry" />
        </mxCell>
        <mxCell id="IJdTJug23O88KiCJzdD0-3" value="NO" style="rhombus;whiteSpace=wrap;html=1;" parent="1" vertex="1">
          <mxGeometry x="-237.5" y="390" width="70" height="40" as="geometry" />
        </mxCell>
        <mxCell id="IJdTJug23O88KiCJzdD0-4" value="YES" style="rhombus;whiteSpace=wrap;html=1;" parent="1" vertex="1">
          <mxGeometry x="-57.5" y="390" width="70" height="40" as="geometry" />
        </mxCell>
        <mxCell id="IJdTJug23O88KiCJzdD0-5" value="NO" style="rhombus;whiteSpace=wrap;html=1;" parent="1" vertex="1">
          <mxGeometry x="72.5" y="390" width="70" height="40" as="geometry" />
        </mxCell>
        <mxCell id="IJdTJug23O88KiCJzdD0-6" value="Romain&amp;nbsp;&lt;div&gt;Emilien&lt;/div&gt;&lt;div&gt;Alexandre&lt;/div&gt;&lt;div&gt;Paul Software&lt;/div&gt;" style="ellipse;whiteSpace=wrap;html=1;aspect=fixed;" parent="1" vertex="1">
          <mxGeometry x="-167.5" y="490" width="100" height="100" as="geometry" />
        </mxCell>
        <mxCell id="IJdTJug23O88KiCJzdD0-10" value="" style="endArrow=classic;html=1;rounded=0;exitX=0.5;exitY=1;exitDx=0;exitDy=0;entryX=0.244;entryY=0.077;entryDx=0;entryDy=0;entryPerimeter=0;" parent="1" source="IJdTJug23O88KiCJzdD0-3" target="IJdTJug23O88KiCJzdD0-6" edge="1">
          <mxGeometry width="50" height="50" relative="1" as="geometry">
            <mxPoint x="-177.5" y="540" as="sourcePoint" />
            <mxPoint x="-127.5" y="490" as="targetPoint" />
          </mxGeometry>
        </mxCell>
        <mxCell id="IJdTJug23O88KiCJzdD0-11" value="" style="endArrow=classic;html=1;rounded=0;exitX=0.5;exitY=1;exitDx=0;exitDy=0;entryX=0.714;entryY=0.03;entryDx=0;entryDy=0;entryPerimeter=0;" parent="1" source="IJdTJug23O88KiCJzdD0-4" target="IJdTJug23O88KiCJzdD0-6" edge="1">
          <mxGeometry width="50" height="50" relative="1" as="geometry">
            <mxPoint x="-117.5" y="490" as="sourcePoint" />
            <mxPoint x="-67.5" y="440" as="targetPoint" />
          </mxGeometry>
        </mxCell>
        <mxCell id="IJdTJug23O88KiCJzdD0-12" value="" style="endArrow=classic;html=1;rounded=0;" parent="1" source="IJdTJug23O88KiCJzdD0-1" target="IJdTJug23O88KiCJzdD0-5" edge="1">
          <mxGeometry width="50" height="50" relative="1" as="geometry">
            <mxPoint x="52.5" y="390" as="sourcePoint" />
            <mxPoint x="102.5" y="340" as="targetPoint" />
          </mxGeometry>
        </mxCell>
        <mxCell id="IJdTJug23O88KiCJzdD0-13" value="" style="endArrow=classic;html=1;rounded=0;entryX=0.41;entryY=0.158;entryDx=0;entryDy=0;entryPerimeter=0;" parent="1" target="2CR2mdME2oEIotMh_P0F-11" edge="1">
          <mxGeometry width="50" height="50" relative="1" as="geometry">
            <mxPoint x="-157.5" y="140" as="sourcePoint" />
            <mxPoint x="-107.5" y="100" as="targetPoint" />
          </mxGeometry>
        </mxCell>
        <mxCell id="IJdTJug23O88KiCJzdD0-14" value="" style="endArrow=classic;html=1;rounded=0;exitX=0.5;exitY=1;exitDx=0;exitDy=0;entryX=0.5;entryY=0;entryDx=0;entryDy=0;" parent="1" source="2CR2mdME2oEIotMh_P0F-11" target="IJdTJug23O88KiCJzdD0-1" edge="1">
          <mxGeometry width="50" height="50" relative="1" as="geometry">
            <mxPoint x="-57.5" y="300" as="sourcePoint" />
            <mxPoint x="-7.5" y="250" as="targetPoint" />
          </mxGeometry>
        </mxCell>
        <mxCell id="IJdTJug23O88KiCJzdD0-15" value="" style="endArrow=classic;html=1;rounded=0;exitX=0.25;exitY=1;exitDx=0;exitDy=0;entryX=0.5;entryY=0;entryDx=0;entryDy=0;" parent="1" source="IJdTJug23O88KiCJzdD0-1" target="IJdTJug23O88KiCJzdD0-4" edge="1">
          <mxGeometry width="50" height="50" relative="1" as="geometry">
            <mxPoint x="-77.5" y="400" as="sourcePoint" />
            <mxPoint x="-27.5" y="350" as="targetPoint" />
          </mxGeometry>
        </mxCell>
        <mxCell id="IJdTJug23O88KiCJzdD0-16" value="" style="endArrow=classic;html=1;rounded=0;exitX=0.357;exitY=1.031;exitDx=0;exitDy=0;exitPerimeter=0;entryX=0.5;entryY=0;entryDx=0;entryDy=0;" parent="1" source="2CR2mdME2oEIotMh_P0F-7" target="2CR2mdME2oEIotMh_P0F-10" edge="1">
          <mxGeometry width="50" height="50" relative="1" as="geometry">
            <mxPoint x="-347.5" y="240" as="sourcePoint" />
            <mxPoint x="-297.5" y="190" as="targetPoint" />
          </mxGeometry>
        </mxCell>
        <mxCell id="IJdTJug23O88KiCJzdD0-17" value="" style="endArrow=classic;html=1;rounded=0;exitX=0.5;exitY=1;exitDx=0;exitDy=0;entryX=0.5;entryY=0;entryDx=0;entryDy=0;" parent="1" source="2CR2mdME2oEIotMh_P0F-10" target="2CR2mdME2oEIotMh_P0F-19" edge="1">
          <mxGeometry width="50" height="50" relative="1" as="geometry">
            <mxPoint x="-367.5" y="300" as="sourcePoint" />
            <mxPoint x="-317.5" y="250" as="targetPoint" />
          </mxGeometry>
        </mxCell>
        <mxCell id="IJdTJug23O88KiCJzdD0-18" value="" style="endArrow=classic;html=1;rounded=0;exitX=0.5;exitY=1;exitDx=0;exitDy=0;" parent="1" source="2CR2mdME2oEIotMh_P0F-19" edge="1">
          <mxGeometry width="50" height="50" relative="1" as="geometry">
            <mxPoint x="-237.5" y="390" as="sourcePoint" />
            <mxPoint x="-207.5" y="380" as="targetPoint" />
          </mxGeometry>
        </mxCell>
        <mxCell id="IJdTJug23O88KiCJzdD0-21" value="" style="endArrow=classic;html=1;rounded=0;exitX=0.392;exitY=0.888;exitDx=0;exitDy=0;exitPerimeter=0;" parent="1" source="2CR2mdME2oEIotMh_P0F-19" edge="1">
          <mxGeometry width="50" height="50" relative="1" as="geometry">
            <mxPoint x="-307.5" y="540" as="sourcePoint" />
            <mxPoint x="-317.5" y="380" as="targetPoint" />
          </mxGeometry>
        </mxCell>
        <mxCell id="IJdTJug23O88KiCJzdD0-22" value="" style="endArrow=classic;html=1;rounded=0;exitX=0;exitY=0.5;exitDx=0;exitDy=0;" parent="1" source="2CR2mdME2oEIotMh_P0F-7" target="2CR2mdME2oEIotMh_P0F-9" edge="1">
          <mxGeometry width="50" height="50" relative="1" as="geometry">
            <mxPoint x="-527.5" y="150" as="sourcePoint" />
            <mxPoint x="-477.5" y="100" as="targetPoint" />
          </mxGeometry>
        </mxCell>
        <mxCell id="IJdTJug23O88KiCJzdD0-23" value="" style="endArrow=classic;html=1;rounded=0;exitX=0;exitY=0.5;exitDx=0;exitDy=0;entryX=1;entryY=0.5;entryDx=0;entryDy=0;" parent="1" source="2CR2mdME2oEIotMh_P0F-23" target="2CR2mdME2oEIotMh_P0F-26" edge="1">
          <mxGeometry width="50" height="50" relative="1" as="geometry">
            <mxPoint x="-717.5" y="360" as="sourcePoint" />
            <mxPoint x="-667.5" y="310" as="targetPoint" />
          </mxGeometry>
        </mxCell>
        <mxCell id="IJdTJug23O88KiCJzdD0-24" value="" style="endArrow=classic;html=1;rounded=0;exitX=0.5;exitY=1;exitDx=0;exitDy=0;" parent="1" source="2CR2mdME2oEIotMh_P0F-9" target="2CR2mdME2oEIotMh_P0F-18" edge="1">
          <mxGeometry width="50" height="50" relative="1" as="geometry">
            <mxPoint x="-787.5" y="340" as="sourcePoint" />
            <mxPoint x="-737.5" y="290" as="targetPoint" />
          </mxGeometry>
        </mxCell>
        <mxCell id="IJdTJug23O88KiCJzdD0-25" value="" style="endArrow=classic;html=1;rounded=0;entryX=0.5;entryY=0;entryDx=0;entryDy=0;" parent="1" target="2CR2mdME2oEIotMh_P0F-23" edge="1">
          <mxGeometry width="50" height="50" relative="1" as="geometry">
            <mxPoint x="-567.5" y="360" as="sourcePoint" />
            <mxPoint x="-707.5" y="310" as="targetPoint" />
          </mxGeometry>
        </mxCell>
        <mxCell id="IJdTJug23O88KiCJzdD0-26" value="" style="endArrow=classic;html=1;rounded=0;entryX=0.5;entryY=0;entryDx=0;entryDy=0;" parent="1" target="2CR2mdME2oEIotMh_P0F-22" edge="1">
          <mxGeometry width="50" height="50" relative="1" as="geometry">
            <mxPoint x="-567.5" y="360" as="sourcePoint" />
            <mxPoint x="-727.5" y="350" as="targetPoint" />
          </mxGeometry>
        </mxCell>
        <mxCell id="IJdTJug23O88KiCJzdD0-28" value="" style="endArrow=classic;html=1;rounded=0;exitX=0.5;exitY=1;exitDx=0;exitDy=0;entryX=0.5;entryY=0;entryDx=0;entryDy=0;" parent="1" source="2CR2mdME2oEIotMh_P0F-21" target="2CR2mdME2oEIotMh_P0F-27" edge="1">
          <mxGeometry width="50" height="50" relative="1" as="geometry">
            <mxPoint x="-647.5" y="800" as="sourcePoint" />
            <mxPoint x="-597.5" y="750" as="targetPoint" />
          </mxGeometry>
        </mxCell>
        <mxCell id="IJdTJug23O88KiCJzdD0-29" value="" style="endArrow=classic;html=1;rounded=0;exitX=0.5;exitY=1;exitDx=0;exitDy=0;entryX=0.5;entryY=0;entryDx=0;entryDy=0;" parent="1" source="2CR2mdME2oEIotMh_P0F-21" target="2CR2mdME2oEIotMh_P0F-28" edge="1">
          <mxGeometry width="50" height="50" relative="1" as="geometry">
            <mxPoint x="-437.5" y="780" as="sourcePoint" />
            <mxPoint x="-387.5" y="730" as="targetPoint" />
          </mxGeometry>
        </mxCell>
        <mxCell id="IJdTJug23O88KiCJzdD0-30" value="" style="endArrow=classic;html=1;rounded=0;entryX=0.5;entryY=0;entryDx=0;entryDy=0;" parent="1" source="2CR2mdME2oEIotMh_P0F-29" target="2CR2mdME2oEIotMh_P0F-33" edge="1">
          <mxGeometry width="50" height="50" relative="1" as="geometry">
            <mxPoint x="-677.5" y="850" as="sourcePoint" />
            <mxPoint x="-627.5" y="800" as="targetPoint" />
          </mxGeometry>
        </mxCell>
        <mxCell id="IJdTJug23O88KiCJzdD0-31" value="" style="endArrow=classic;html=1;rounded=0;exitX=0.595;exitY=0.982;exitDx=0;exitDy=0;exitPerimeter=0;entryX=0.5;entryY=0;entryDx=0;entryDy=0;" parent="1" source="2CR2mdME2oEIotMh_P0F-29" target="2CR2mdME2oEIotMh_P0F-32" edge="1">
          <mxGeometry width="50" height="50" relative="1" as="geometry">
            <mxPoint x="-597.5" y="920" as="sourcePoint" />
            <mxPoint x="-547.5" y="870" as="targetPoint" />
          </mxGeometry>
        </mxCell>
        <mxCell id="IJdTJug23O88KiCJzdD0-32" value="" style="endArrow=classic;html=1;rounded=0;exitX=0.5;exitY=1;exitDx=0;exitDy=0;" parent="1" source="2CR2mdME2oEIotMh_P0F-33" target="2CR2mdME2oEIotMh_P0F-31" edge="1">
          <mxGeometry width="50" height="50" relative="1" as="geometry">
            <mxPoint x="-777.5" y="950" as="sourcePoint" />
            <mxPoint x="-727.5" y="900" as="targetPoint" />
          </mxGeometry>
        </mxCell>
        <mxCell id="IJdTJug23O88KiCJzdD0-33" value="project management" style="rhombus;whiteSpace=wrap;html=1;" parent="1" vertex="1">
          <mxGeometry x="-787.5" y="540" width="100" height="90" as="geometry" />
        </mxCell>
        <mxCell id="IJdTJug23O88KiCJzdD0-34" value="design work" style="rhombus;whiteSpace=wrap;html=1;" parent="1" vertex="1">
          <mxGeometry x="-487.5" y="540" width="100" height="90" as="geometry" />
        </mxCell>
        <mxCell id="IJdTJug23O88KiCJzdD0-35" value="what type of&amp;nbsp; work is needed ?" style="text;html=1;align=center;verticalAlign=middle;whiteSpace=wrap;rounded=0;" parent="1" vertex="1">
          <mxGeometry x="-616.5" y="490" width="170" height="30" as="geometry" />
        </mxCell>
        <mxCell id="IJdTJug23O88KiCJzdD0-36" value="&lt;div&gt;&lt;br&gt;&lt;/div&gt;&lt;div&gt;&lt;br&gt;&lt;/div&gt;&lt;div&gt;&lt;br&gt;&lt;/div&gt;&lt;div&gt;&lt;br&gt;&lt;/div&gt;AutoCAD" style="ellipse;whiteSpace=wrap;html=1;" parent="1" vertex="1">
          <mxGeometry x="-237.5" y="831.88" width="120" height="80" as="geometry" />
        </mxCell>
        <mxCell id="IJdTJug23O88KiCJzdD0-38" value="" style="endArrow=classic;html=1;rounded=0;exitX=0.5;exitY=1;exitDx=0;exitDy=0;entryX=0.5;entryY=0;entryDx=0;entryDy=0;" parent="1" source="2CR2mdME2oEIotMh_P0F-22" target="IJdTJug23O88KiCJzdD0-35" edge="1">
          <mxGeometry width="50" height="50" relative="1" as="geometry">
            <mxPoint x="-527.5" y="490" as="sourcePoint" />
            <mxPoint x="-477.5" y="440" as="targetPoint" />
          </mxGeometry>
        </mxCell>
        <mxCell id="IJdTJug23O88KiCJzdD0-39" value="" style="endArrow=classic;html=1;rounded=0;exitX=0.711;exitY=0.938;exitDx=0;exitDy=0;entryX=0.5;entryY=0;entryDx=0;entryDy=0;exitPerimeter=0;" parent="1" source="IJdTJug23O88KiCJzdD0-35" target="IJdTJug23O88KiCJzdD0-34" edge="1">
          <mxGeometry width="50" height="50" relative="1" as="geometry">
            <mxPoint x="-527.5" y="580" as="sourcePoint" />
            <mxPoint x="-477.5" y="530" as="targetPoint" />
          </mxGeometry>
        </mxCell>
        <mxCell id="IJdTJug23O88KiCJzdD0-40" value="" style="endArrow=classic;html=1;rounded=0;exitX=0.171;exitY=0.938;exitDx=0;exitDy=0;entryX=0.5;entryY=0;entryDx=0;entryDy=0;exitPerimeter=0;" parent="1" source="IJdTJug23O88KiCJzdD0-35" target="IJdTJug23O88KiCJzdD0-33" edge="1">
          <mxGeometry width="50" height="50" relative="1" as="geometry">
            <mxPoint x="-687.5" y="580" as="sourcePoint" />
            <mxPoint x="-637.5" y="530" as="targetPoint" />
          </mxGeometry>
        </mxCell>
        <mxCell id="IJdTJug23O88KiCJzdD0-41" value="" style="endArrow=classic;html=1;rounded=0;exitX=0.5;exitY=1;exitDx=0;exitDy=0;entryX=0.5;entryY=0;entryDx=0;entryDy=0;" parent="1" source="2CR2mdME2oEIotMh_P0F-27" target="2CR2mdME2oEIotMh_P0F-29" edge="1">
          <mxGeometry width="50" height="50" relative="1" as="geometry">
            <mxPoint x="-647.5" y="850" as="sourcePoint" />
            <mxPoint x="-597.5" y="800" as="targetPoint" />
          </mxGeometry>
        </mxCell>
        <mxCell id="IJdTJug23O88KiCJzdD0-42" value="" style="endArrow=classic;html=1;rounded=0;entryX=0.5;entryY=0;entryDx=0;entryDy=0;" parent="1" source="2CR2mdME2oEIotMh_P0F-31" target="2CR2mdME2oEIotMh_P0F-34" edge="1">
          <mxGeometry width="50" height="50" relative="1" as="geometry">
            <mxPoint x="-667.5" y="1000" as="sourcePoint" />
            <mxPoint x="-617.5" y="950" as="targetPoint" />
          </mxGeometry>
        </mxCell>
        <mxCell id="IJdTJug23O88KiCJzdD0-43" value="" style="endArrow=classic;html=1;rounded=0;exitX=0.366;exitY=0.964;exitDx=0;exitDy=0;entryX=0.5;entryY=0;entryDx=0;entryDy=0;exitPerimeter=0;" parent="1" source="2CR2mdME2oEIotMh_P0F-31" target="2CR2mdME2oEIotMh_P0F-35" edge="1">
          <mxGeometry width="50" height="50" relative="1" as="geometry">
            <mxPoint x="-657.5" y="1030" as="sourcePoint" />
            <mxPoint x="-607.5" y="980" as="targetPoint" />
          </mxGeometry>
        </mxCell>
        <mxCell id="IJdTJug23O88KiCJzdD0-44" value="" style="endArrow=classic;html=1;rounded=0;exitX=0.5;exitY=1;exitDx=0;exitDy=0;" parent="1" source="2CR2mdME2oEIotMh_P0F-35" target="2CR2mdME2oEIotMh_P0F-37" edge="1">
          <mxGeometry width="50" height="50" relative="1" as="geometry">
            <mxPoint x="-517.5" y="1040" as="sourcePoint" />
            <mxPoint x="-467.5" y="990" as="targetPoint" />
          </mxGeometry>
        </mxCell>
        <mxCell id="IJdTJug23O88KiCJzdD0-46" value="" style="endArrow=classic;html=1;rounded=0;exitX=0.5;exitY=1;exitDx=0;exitDy=0;entryX=0.5;entryY=0;entryDx=0;entryDy=0;" parent="1" source="2CR2mdME2oEIotMh_P0F-28" target="IJdTJug23O88KiCJzdD0-36" edge="1">
          <mxGeometry width="50" height="50" relative="1" as="geometry">
            <mxPoint x="-347.5" y="850" as="sourcePoint" />
            <mxPoint x="-297.5" y="800" as="targetPoint" />
          </mxGeometry>
        </mxCell>
        <mxCell id="IJdTJug23O88KiCJzdD0-47" value="" style="endArrow=classic;html=1;rounded=0;exitX=0.5;exitY=1;exitDx=0;exitDy=0;entryX=0.5;entryY=0;entryDx=0;entryDy=0;" parent="1" source="IJdTJug23O88KiCJzdD0-34" target="2CR2mdME2oEIotMh_P0F-21" edge="1">
          <mxGeometry width="50" height="50" relative="1" as="geometry">
            <mxPoint x="-507.5" y="680" as="sourcePoint" />
            <mxPoint x="-457.5" y="630" as="targetPoint" />
          </mxGeometry>
        </mxCell>
        <mxCell id="IJdTJug23O88KiCJzdD0-49" value="Do you have a bim coordinator ?" style="text;html=1;align=center;verticalAlign=middle;whiteSpace=wrap;rounded=0;" parent="1" vertex="1">
          <mxGeometry x="-970.5" y="680" width="150" height="30" as="geometry" />
        </mxCell>
        <mxCell id="IJdTJug23O88KiCJzdD0-50" value="YES" style="rhombus;whiteSpace=wrap;html=1;" parent="1" vertex="1">
          <mxGeometry x="-855" y="750" width="70" height="40" as="geometry" />
        </mxCell>
        <mxCell id="IJdTJug23O88KiCJzdD0-59" style="edgeStyle=orthogonalEdgeStyle;rounded=0;orthogonalLoop=1;jettySize=auto;html=1;" parent="1" source="IJdTJug23O88KiCJzdD0-51" target="IJdTJug23O88KiCJzdD0-58" edge="1">
          <mxGeometry relative="1" as="geometry" />
        </mxCell>
        <mxCell id="IJdTJug23O88KiCJzdD0-51" value="NO" style="rhombus;whiteSpace=wrap;html=1;" parent="1" vertex="1">
          <mxGeometry x="-1040.5" y="744.5" width="70" height="40" as="geometry" />
        </mxCell>
        <mxCell id="IJdTJug23O88KiCJzdD0-53" value="" style="endArrow=classic;html=1;rounded=0;exitX=0;exitY=1;exitDx=0;exitDy=0;entryX=0.44;entryY=-0.014;entryDx=0;entryDy=0;entryPerimeter=0;" parent="1" source="IJdTJug23O88KiCJzdD0-33" target="IJdTJug23O88KiCJzdD0-49" edge="1">
          <mxGeometry width="50" height="50" relative="1" as="geometry">
            <mxPoint x="-837.5" y="700" as="sourcePoint" />
            <mxPoint x="-787.5" y="650" as="targetPoint" />
          </mxGeometry>
        </mxCell>
        <mxCell id="IJdTJug23O88KiCJzdD0-54" value="" style="endArrow=classic;html=1;rounded=0;exitX=0.5;exitY=1;exitDx=0;exitDy=0;entryX=0.5;entryY=0;entryDx=0;entryDy=0;" parent="1" source="IJdTJug23O88KiCJzdD0-49" target="IJdTJug23O88KiCJzdD0-50" edge="1">
          <mxGeometry width="50" height="50" relative="1" as="geometry">
            <mxPoint x="-837.5" y="800" as="sourcePoint" />
            <mxPoint x="-787.5" y="750" as="targetPoint" />
          </mxGeometry>
        </mxCell>
        <mxCell id="IJdTJug23O88KiCJzdD0-55" value="" style="endArrow=classic;html=1;rounded=0;entryX=0.5;entryY=0;entryDx=0;entryDy=0;" parent="1" source="IJdTJug23O88KiCJzdD0-49" target="IJdTJug23O88KiCJzdD0-51" edge="1">
          <mxGeometry width="50" height="50" relative="1" as="geometry">
            <mxPoint x="-1037.5" y="730" as="sourcePoint" />
            <mxPoint x="-987.5" y="680" as="targetPoint" />
          </mxGeometry>
        </mxCell>
        <mxCell id="IJdTJug23O88KiCJzdD0-56" value="&lt;div&gt;&lt;br&gt;&lt;/div&gt;&lt;div&gt;&lt;br&gt;&lt;/div&gt;&lt;div&gt;&lt;br&gt;&lt;/div&gt;AUTODESK&amp;nbsp;&lt;span style=&quot;background-color: transparent; color: light-dark(rgb(0, 0, 0), rgb(255, 255, 255));&quot;&gt;BIM 360&lt;/span&gt;" style="ellipse;whiteSpace=wrap;html=1;" parent="1" vertex="1">
          <mxGeometry x="-900" y="843" width="160" height="87" as="geometry" />
        </mxCell>
        <mxCell id="IJdTJug23O88KiCJzdD0-57" value="" style="endArrow=classic;html=1;rounded=0;exitX=0.5;exitY=1;exitDx=0;exitDy=0;entryX=0.5;entryY=0;entryDx=0;entryDy=0;" parent="1" source="IJdTJug23O88KiCJzdD0-50" target="IJdTJug23O88KiCJzdD0-56" edge="1">
          <mxGeometry width="50" height="50" relative="1" as="geometry">
            <mxPoint x="-917.5" y="860" as="sourcePoint" />
            <mxPoint x="-867.5" y="810" as="targetPoint" />
          </mxGeometry>
        </mxCell>
        <mxCell id="IJdTJug23O88KiCJzdD0-58" value="&lt;div&gt;&lt;br&gt;&lt;/div&gt;&lt;div&gt;&lt;br&gt;&lt;/div&gt;AUTODESK&amp;nbsp;&lt;span style=&quot;background-color: transparent; color: light-dark(rgb(0, 0, 0), rgb(255, 255, 255));&quot;&gt;BUILD&lt;/span&gt;" style="ellipse;whiteSpace=wrap;html=1;" parent="1" vertex="1">
          <mxGeometry x="-1070.51" y="846.5" width="130" height="80" as="geometry" />
        </mxCell>
        <mxCell id="IJdTJug23O88KiCJzdD0-60" value="&lt;div&gt;&lt;br&gt;&lt;/div&gt;&lt;div&gt;&lt;br&gt;&lt;/div&gt;&lt;div&gt;&lt;br&gt;&lt;/div&gt;&lt;div&gt;&lt;br&gt;&lt;/div&gt;SketchUp" style="ellipse;whiteSpace=wrap;html=1;" parent="1" vertex="1">
          <mxGeometry x="72.5" y="490" width="157.5" height="70" as="geometry" />
        </mxCell>
        <mxCell id="IJdTJug23O88KiCJzdD0-61" value="&lt;div&gt;&lt;br&gt;&lt;/div&gt;&lt;div&gt;&lt;br&gt;&lt;/div&gt;Revit" style="ellipse;whiteSpace=wrap;html=1;" parent="1" vertex="1">
          <mxGeometry x="-387.5" y="480" width="137.5" height="80" as="geometry" />
        </mxCell>
        <mxCell id="IJdTJug23O88KiCJzdD0-62" value="" style="endArrow=classic;html=1;rounded=0;exitX=0.5;exitY=1;exitDx=0;exitDy=0;entryX=0.5;entryY=0;entryDx=0;entryDy=0;" parent="1" source="IJdTJug23O88KiCJzdD0-5" target="IJdTJug23O88KiCJzdD0-60" edge="1">
          <mxGeometry width="50" height="50" relative="1" as="geometry">
            <mxPoint x="-17.5" y="580" as="sourcePoint" />
            <mxPoint x="32.5" y="530" as="targetPoint" />
          </mxGeometry>
        </mxCell>
        <mxCell id="IJdTJug23O88KiCJzdD0-63" value="" style="endArrow=classic;html=1;rounded=0;exitX=0.5;exitY=1;exitDx=0;exitDy=0;" parent="1" source="IJdTJug23O88KiCJzdD0-2" target="IJdTJug23O88KiCJzdD0-61" edge="1">
          <mxGeometry width="50" height="50" relative="1" as="geometry">
            <mxPoint x="-277.5" y="530" as="sourcePoint" />
            <mxPoint x="-227.5" y="480" as="targetPoint" />
          </mxGeometry>
        </mxCell>
        <mxCell id="ipKGt178RLqoAKH5wHGe-3" value="" style="shape=image;verticalLabelPosition=bottom;labelBackgroundColor=default;verticalAlign=top;aspect=fixed;imageAspect=0;image=https://images.softwaresuggest.com/software_logo/staadpro-20231006122851.png;" vertex="1" parent="1">
          <mxGeometry x="-742.5" y="1060" width="40" height="40" as="geometry" />
        </mxCell>
        <mxCell id="ipKGt178RLqoAKH5wHGe-4" value="" style="shape=image;verticalLabelPosition=bottom;labelBackgroundColor=default;verticalAlign=top;aspect=fixed;imageAspect=0;image=https://www.f3df.com/wp-content/uploads/2023/02/autodesk-navisworks-product-icon-128@2x.png;" vertex="1" parent="1">
          <mxGeometry x="-261.31" y="1071.1899999999998" width="37.63" height="37.63" as="geometry" />
        </mxCell>
        <mxCell id="ipKGt178RLqoAKH5wHGe-5" value="" style="shape=image;verticalLabelPosition=bottom;labelBackgroundColor=default;verticalAlign=top;aspect=fixed;imageAspect=0;image=https://www.cadac.com/globalassets/software/fy23---autodesk/autodesk-build-small-social-400.png;" vertex="1" parent="1">
          <mxGeometry x="-1020.7700000000001" y="856.61" width="30.52" height="30.52" as="geometry" />
        </mxCell>
        <mxCell id="ipKGt178RLqoAKH5wHGe-6" value="" style="shape=image;verticalLabelPosition=bottom;labelBackgroundColor=default;verticalAlign=top;aspect=fixed;imageAspect=0;image=https://is1-ssl.mzstatic.com/image/thumb/Purple221/v4/89/44/55/89445505-901e-9723-7ac5-986123f07899/AppIcon-0-0-1x_U007emarketing-0-7-0-85-220.png/1200x630wa.png;clipPath=inset(18.35% 33.33% 18.35% 32.33%);" vertex="1" parent="1">
          <mxGeometry x="-842.52" y="850.01" width="45.04" height="43.73" as="geometry" />
        </mxCell>
        <mxCell id="ipKGt178RLqoAKH5wHGe-9" value="" style="shape=image;verticalLabelPosition=bottom;labelBackgroundColor=default;verticalAlign=top;aspect=fixed;imageAspect=0;image=https://cursosbyte.com.br/wp-content/uploads/2024/01/autocad_curso-min.jpg;clipPath=inset(14% 12.33% 14.33% 12%);" vertex="1" parent="1">
          <mxGeometry x="-201.25" y="850.0100000000001" width="43.75" height="41.44" as="geometry" />
        </mxCell>
        <mxCell id="ipKGt178RLqoAKH5wHGe-10" value="" style="shape=image;verticalLabelPosition=bottom;labelBackgroundColor=default;verticalAlign=top;aspect=fixed;imageAspect=0;image=data:image/png,iVBORw0KGgoAAAANSUhEUgAAAOEAAADhCAMAAAAJbSJIAAAA8FBMVEUYa/8MPZH///9nmucAM41qg7YLO40Zb/8PSa/k7PpclOYNQZsAZf+Bpv8AYv+rxP8AOY9+jrM7WZ73+v2jvv8vV6AAX/8ZRpZWbqkNaP/n6OkAOpBLhP8rUJsAW/9fdq0AI4jr8fgALIrj6/+0y//U4/8AMYxek/8AK4qOsf/H2f8AWf/U2uiZqczc5PAqdP+YuP9Riv+Dqv94jbsAGIS9x90AH4ZGZKTz8/KauOiNq+x0pOy7zfKKsOt6oO+nv+hfkvPE1O650P/N3v89e/9ynv8AUP9EgP92oP9HeMZYitg5aLczU5u4xdyisdGHm8RyG7I/AAAIM0lEQVR4nO3dfUOiSBgAcJil8+qQXGlVlnwBC81Vy1p7udrrtm3v2nbL7/9tDpUZQId0wGKeuXn+2RUQ+DXvw1AKWi8uryyFyyjs//n1xTtX1gN+vX6XNyUpLF3Zv8kqHH7Zecet0A/L+svMIry89X1cCxVF/zuRuFr49XoG5FvoE9MKZxkUgFDRd1MJndt3JPImrAjr+DKFEGdQCEJFP2AWfvwS8fEvtBJKYqIwqEHhCJUCmzCWQWEIDXpBpAuHXxZ9AISVj2sLzdslnljC5QwqlpCWQUUSXlIzqEDCPj2DCiP8eJXsE0HoN/EvAeELE2pQYYTmixlUBOH2SqAU5h9SKIVSmH9IoRRKYf4hhVIohcthGatD13VrUw+X31xojfZWxslRsbNfMBoNYxPMWjMWg9cW6qfUHyklzPbd0ciqGBmBhT9K0ehuvbqwuK5wFs5d8biiZxOq0dB4E06RByM9gxGA0I/eqJK6RMIQInR3nLY8QhEi87QiuBChAz1VTgUkRD0lDRGSEH1L09EBJUS9FK0GLCHaZa9ugAlRhzkVoQnbDdGF6IE1EXkRHp7g2NvtHSYvC0Vt1uqUF+Hup8gA2LovHiYSWUsiN8JYt9My9GJSOh4wdlD5FPpRuXfowjbjBbkVKvo+PRXNfbaSyK9QqZzQE/E7W0HkWGgl5NMjtoLIsVAxetRD99h6blwLj6iHHogj1L8LL+xIoRRKoRRKoRRKoZFwqEBC+ruDJ+IILfpUxoMwYwt9RD3SHIkzAv5GPVKcWYxGwhCflp8hCq2EwSFCIxFmEy29cn+XADyEOue9908DR8U4fqDPX6RJQm6EziGJdsJE6SzuPrFekBfhmuEcMz8FhiU0O+xrTmAJ06w4ASUspllSA0hoMnZIwQm3O+kWRYERpl7YBkTodBppFyeCEJpHGRaYghA69xnWe4MQsk4+ARSiDIkIRNhj7nBzJ2wf4KCPLBiXJ3AoJCuGPtHfx0iz7pIzIWnPrTb1APZFidwKDXoiMs9e8CtUFHoiput3cylMeFzBvCiRX6GibFMPOU2XiDwKE0qiI45QadDbxBPQI+CYMCERzQLkN0oWVtDSS+JemkTkU1ihP7Qw03TA+RQmVadpRlGcCpNKIuPTUY6FVoGeiD3mF0p4FSYlImKf1udVqFj0NtFUoD5dWxImPQM2Ow3DYnkPkVuhoic9Ruydjvb/FUGY9DLCNB3NQxGESuGFZ8EMQymOhQkdG4GESkKbKJAwqU0UR5g07SaQMGHtnkBCpbEnulDR6esTBRJax/SiKI5Q0e+pRIGEiqXfCS70+zYPy8m4zbFQOd6nxUtzTEahGP8dBM5dh2ehYlHjxW8Y+n5xt9fedpztw97ew73BMAzOQZgqLKPSqBi6Pv2H7bcpQRGmDymUQinMP6RQCqUw/5BCKZTC/EMKpVAK8w8plEIpzD+kUAqlMP+QQimUwvxDCuELlazCAveRUfjjd+5DzSJ8rJd+4z6yCH+qJRVasAh/APSxCB+rWt43myrWFv5U7bzvNV2sKfxRhZhBZ7GW8LEOM4POYh3hzxLQDDqL1cJHkDVoGCuEO1+G7wHn0GmsEN5cIpGFO1fT13TEFe78OZxtElW4c30z35JaGPujvPHa2MZbVdpWO3LAYqSo1JOEV+Q9srTCcjR+1VXPwyC7jjdHifavYGPdjn83dh52IlW4c91HKJuw9AGZ0XCG40nVnYu8QbARRXpKtuoEWyde1THpgfreZoQ3CG1AuBxP5e5sXxlvOAvPrV0E28xyqZr4IuJmhFfxv02+QSFCk9Z0Z3cYfBy75Ate8AfC0dC1X1cYzaCbF6LB1NR9xprwC94YH9F9XeHt5eJJNytENf90WhN/InWNXcXp2tReVUiJrMKnaQzJ6fralIMJZ/iOSTF06ravdYLA38KfxxwKTbXlx+caudkL/3xdnCVJQXTPIlvsbmsWny/weyXe+XxLl/1OXl9YnzVhLsmY02TzsGdYDRo4Yj6LpFKphoUZBuBvJVRtnFGndU2pjG+9Fpyd7I72AiLC9CPUNxN6uI6e1aYa/jSZZ9MSzo/DaGJBFpLWbzwvWSTbPrvRkwAWkt3O/N5JC1mLXg2WUIsJVS9s/mZC/NGLUkAJNVLxb80qS/cJg6fZ1K4Ge/vnsZPAEFY1P7pdnITmvLLE10X9VvTTwI2dBIZwq9lsbg1Igx9UJbaGN0xHtaQYXsTaPRjChRjihwMt3MRP65bzIIWdeKcMotD5gM/mTcJEtd3g/08t6MJx+PyKdGv6rt/eB/vPoKfh5HPkRl3cQKg2bv+dcrz7CU84jD6hc3G3pqbh0e/i6A+G0KxdXJCh0yTSGJBh8HNXDfbH2wowwrpWIo2BE0lEMqrve3hmqrZwKShC22fhOx1EhrC4W2NWg263s+iAIwzLnBlJRNKRaQbUsbt4EjjCMBGfw0S068HG56C9P1u8EiBh2C0z62F9iatQM3DUF6cqIAlJeqF+WcN3S7o18xguzaNBEqrdATmhUw5ut1SNXeh5sRjCEtp1MrowSc/lfBi9UHPpQqCE4UxMREhK52yztqSAJVQ9PKoPheHsPgqGwgsnASFE+KGm3cLEcJhbilxnscs23U1+AhwKfVEQ4ZZWfTAej5+akceiJZsEdVZ7+STM8ZZCteS5nudqlIOSEFwLeQkplEL+Qwr/D8IB+6NzrmK1sJ/i2TlPsVpoZugx8RCrhWgCO5uuIbx0QSfiGkL0tNzrBxTrCP3qFHAqriVEzyW4bySsJ0T9C215kgFGrClEaPy+XM37ZlMFFv4HWVe+Ok3tJj0AAAAASUVORK5CYII=;" vertex="1" parent="1">
          <mxGeometry x="-338.44" y="485.31" width="39.38" height="39.38" as="geometry" />
        </mxCell>
        <mxCell id="ipKGt178RLqoAKH5wHGe-11" value="" style="shape=image;verticalLabelPosition=bottom;labelBackgroundColor=default;verticalAlign=top;aspect=fixed;imageAspect=0;image=https://elmtec.fr/wp-content/uploads/2022/01/SketchUp-Mark-1200pxl-RGB.png;" vertex="1" parent="1">
          <mxGeometry x="132.44" y="499.06" width="37.63" height="40.94" as="geometry" />
        </mxCell>
        <mxCell id="ipKGt178RLqoAKH5wHGe-12" value="&lt;div&gt;&lt;br&gt;&lt;/div&gt;&lt;div&gt;&lt;br&gt;&lt;/div&gt;&lt;div&gt;&lt;span style=&quot;background-color: transparent; color: light-dark(rgb(0, 0, 0), rgb(255, 255, 255));&quot;&gt;Abaqus&lt;/span&gt;&lt;/div&gt;" style="ellipse;whiteSpace=wrap;html=1;" vertex="1" parent="1">
          <mxGeometry x="-587.5" y="1220" width="117.5" height="80" as="geometry" />
        </mxCell>
        <mxCell id="ipKGt178RLqoAKH5wHGe-13" value="Is the building’s structural body an unconventional shape?" style="text;html=1;align=center;verticalAlign=middle;whiteSpace=wrap;rounded=0;" vertex="1" parent="1">
          <mxGeometry x="-626.5" y="1085" width="213" height="30" as="geometry" />
        </mxCell>
        <mxCell id="ipKGt178RLqoAKH5wHGe-14" value="No" style="rhombus;whiteSpace=wrap;html=1;" vertex="1" parent="1">
          <mxGeometry x="-397.5" y="1080" width="70" height="40" as="geometry" />
        </mxCell>
        <mxCell id="ipKGt178RLqoAKH5wHGe-15" value="yes" style="rhombus;whiteSpace=wrap;html=1;" vertex="1" parent="1">
          <mxGeometry x="-557.5" y="1140" width="70" height="40" as="geometry" />
        </mxCell>
        <mxCell id="ipKGt178RLqoAKH5wHGe-16" value="" style="endArrow=classic;html=1;rounded=0;exitX=0.5;exitY=1;exitDx=0;exitDy=0;entryX=0.5;entryY=0;entryDx=0;entryDy=0;" edge="1" parent="1" source="2CR2mdME2oEIotMh_P0F-34" target="ipKGt178RLqoAKH5wHGe-13">
          <mxGeometry width="50" height="50" relative="1" as="geometry">
            <mxPoint x="-500" y="1070" as="sourcePoint" />
            <mxPoint x="-450" y="1020" as="targetPoint" />
          </mxGeometry>
        </mxCell>
        <mxCell id="ipKGt178RLqoAKH5wHGe-17" value="" style="endArrow=classic;html=1;rounded=0;exitX=0.5;exitY=1;exitDx=0;exitDy=0;" edge="1" parent="1" source="ipKGt178RLqoAKH5wHGe-13" target="ipKGt178RLqoAKH5wHGe-15">
          <mxGeometry width="50" height="50" relative="1" as="geometry">
            <mxPoint x="-630" y="1230" as="sourcePoint" />
            <mxPoint x="-580" y="1180" as="targetPoint" />
          </mxGeometry>
        </mxCell>
        <mxCell id="ipKGt178RLqoAKH5wHGe-18" value="" style="endArrow=classic;html=1;rounded=0;exitX=0.5;exitY=1;exitDx=0;exitDy=0;entryX=0.559;entryY=-0.015;entryDx=0;entryDy=0;entryPerimeter=0;" edge="1" parent="1" source="ipKGt178RLqoAKH5wHGe-15" target="ipKGt178RLqoAKH5wHGe-12">
          <mxGeometry width="50" height="50" relative="1" as="geometry">
            <mxPoint x="-600" y="1220" as="sourcePoint" />
            <mxPoint x="-550" y="1170" as="targetPoint" />
          </mxGeometry>
        </mxCell>
        <mxCell id="ipKGt178RLqoAKH5wHGe-19" value="" style="endArrow=classic;html=1;rounded=0;exitX=1;exitY=0.5;exitDx=0;exitDy=0;entryX=0;entryY=0.5;entryDx=0;entryDy=0;" edge="1" parent="1" source="ipKGt178RLqoAKH5wHGe-13" target="ipKGt178RLqoAKH5wHGe-14">
          <mxGeometry width="50" height="50" relative="1" as="geometry">
            <mxPoint x="-380" y="1200" as="sourcePoint" />
            <mxPoint x="-330" y="1150" as="targetPoint" />
          </mxGeometry>
        </mxCell>
        <mxCell id="ipKGt178RLqoAKH5wHGe-20" value="" style="endArrow=classic;html=1;rounded=0;exitX=1;exitY=0.5;exitDx=0;exitDy=0;entryX=0;entryY=0.5;entryDx=0;entryDy=0;" edge="1" parent="1" source="ipKGt178RLqoAKH5wHGe-14" target="2CR2mdME2oEIotMh_P0F-36">
          <mxGeometry width="50" height="50" relative="1" as="geometry">
            <mxPoint x="-326.25" y="1150" as="sourcePoint" />
            <mxPoint x="-308.75" y="1080" as="targetPoint" />
          </mxGeometry>
        </mxCell>
        <mxCell id="ipKGt178RLqoAKH5wHGe-21" value="" style="shape=image;verticalLabelPosition=bottom;labelBackgroundColor=default;verticalAlign=top;aspect=fixed;imageAspect=0;image=https://edu.3ds.com/sites/default/files/2016-03/3DS_ABAQUS_icon_512.jpg;" vertex="1" parent="1">
          <mxGeometry x="-546" y="1230" width="38.5" height="38.5" as="geometry" />
        </mxCell>
      </root>
    </mxGraphModel>
  </diagram>
</mxfile>
